<svg width="670" height="670" viewBox="0 0 670 670" fill="none" xmlns="http://www.w3.org/2000/svg">
<path fill-rule="evenodd" clip-rule="evenodd" d="M670 0H0V670H670V0ZM298.5 304V397H346.5L347 343C369.333 341 388 335.333 403 326C418.333 316.333 429.833 304.167 437.5 289.5C445.167 274.833 449 258.833 449 241.5V235.5C449 216.5 444.333 199.167 435 183.5C426 167.5 413 154.833 396 145.5C379.333 135.833 359.333 131 336 131C309.667 131 287.667 136.333 270 147C252.333 157.667 239 171.5 230 188.5C221.333 205.5 217 223.833 217 243.5H263C263 223.167 269.5 206.333 282.5 193C295.833 179.667 313.667 173 336 173C355.667 173 371.667 178.833 384 190.5C396.667 201.833 403 217.833 403 238.5C403 256.833 397.167 272.333 385.5 285C374.167 297.667 356.667 304 333 304H298.5ZM293.5 445V506H351.5V445H293.5Z" fill="white"/>
</svg>
