<svg width="583" height="337" viewBox="0 0 583 337" fill="none" xmlns="http://www.w3.org/2000/svg">
<g clip-path="url(#clip0_116_143)">
<rect x="25.9813" width="483.819" height="351.054" rx="175.527" transform="matrix(0.866044 -0.499967 0.866044 0.499967 -92.5197 214.883)" fill="#EEEEEE" stroke="white" stroke-width="30"/>
<g filter="url(#filter0_d_116_143)">
<path d="M361.034 109.709C368.548 114.047 374.849 118.72 379.935 123.726C385.02 128.611 388.468 133.525 390.279 138.467C392.089 143.41 392.05 148.198 390.161 152.832C388.273 157.466 384.058 161.671 377.518 165.447C370.978 169.223 363.588 171.411 355.348 172.014C347.108 172.494 338.493 171.357 329.504 168.603C332.375 175.011 332.867 180.654 330.979 185.532C329.091 190.41 325.826 194.189 321.185 196.868C317.071 199.243 312.638 200.947 307.886 201.979C303.24 202.951 298.486 203.373 293.626 203.247C288.87 203.059 284.166 202.292 279.513 200.946C274.86 199.599 270.47 197.735 266.343 195.352C257.876 190.464 251.891 185.365 248.389 180.055C244.781 174.684 243.023 169.467 243.114 164.404C243.311 159.28 245.041 154.554 248.304 150.227C251.461 145.838 255.572 142.182 260.635 139.259C263.483 137.614 266.491 136.306 269.658 135.333C272.719 134.299 275.675 133.509 278.526 132.962C281.378 132.416 283.913 132.053 286.131 131.872C288.455 131.63 290.198 131.479 291.36 131.419C292.416 131.42 293.632 131.513 295.006 131.697C296.274 131.82 297.438 132.188 298.496 132.799C300.083 133.715 300.932 134.875 301.042 136.278C301.151 137.681 300.362 138.87 298.675 139.844C297.409 140.575 295.931 141 294.24 141.121C292.55 141.119 290.595 141.209 288.377 141.39C286.053 141.509 283.518 141.934 280.773 142.663C277.922 143.332 274.703 144.701 271.117 146.771C268.163 148.477 265.581 150.884 263.371 153.992C261.161 156.979 259.956 160.363 259.755 164.145C259.66 167.866 260.939 171.832 263.593 176.043C266.352 180.194 271.224 184.285 278.209 188.318C280.961 189.907 283.817 191.129 286.778 191.986C289.739 192.721 292.593 193.151 295.341 193.275C298.088 193.4 300.729 193.219 303.264 192.734C305.798 192.248 307.962 191.488 309.755 190.453C315.768 186.981 318.343 182.317 317.481 176.461C316.513 170.543 311.37 163.981 302.051 156.774C300.569 155.797 299.879 154.729 299.982 153.57C299.978 152.35 300.662 151.344 302.034 150.552C303.827 149.517 305.833 149.031 308.052 149.094C310.165 149.096 312.121 149.494 313.92 150.289C316.142 151.45 319.316 153.039 323.443 155.056C327.675 157.012 332.276 158.694 337.246 160.102C342.322 161.448 347.501 162.185 352.784 162.312C358.068 162.439 362.872 161.255 367.197 158.758C370.151 157.053 372.416 154.828 373.993 152.085C375.57 149.219 375.878 145.987 374.916 142.387C373.955 138.787 371.408 134.82 367.275 130.485C363.247 126.089 357.053 121.478 348.692 116.651C341.389 112.436 332.768 109.225 322.83 107.019C312.786 104.753 302.164 103.736 290.964 103.97C279.87 104.142 268.464 105.717 256.744 108.695C245.129 111.612 233.995 116.146 223.341 122.296C210.999 129.421 202.04 137.098 196.463 145.328C190.887 153.557 188.322 161.881 188.768 170.299C189.215 178.717 192.62 186.955 198.983 195.013C205.345 203.071 214.401 210.491 226.148 217.273C235.039 222.405 245.14 226.227 256.453 228.739C267.66 231.19 279.181 232.36 291.014 232.249C302.848 232.016 314.519 230.533 326.028 227.799C337.643 225.004 348.197 220.866 357.691 215.385C364.02 211.732 368.503 208.838 371.138 206.706C373.773 204.574 375.566 203.233 376.515 202.685C378.308 201.65 380.103 201.164 381.9 201.226C383.907 201.289 385.599 201.718 386.975 202.512C388.563 203.429 389.147 204.619 388.729 206.082C388.416 207.485 387.364 209.07 385.573 210.837C383.887 212.544 381.673 214.31 378.931 216.138C376.189 217.965 373.341 219.731 370.388 221.436C360.366 227.222 348.757 231.907 335.56 235.494C322.574 239.08 309.002 241.172 294.845 241.768C280.9 242.365 266.949 241.315 252.995 238.617C239.039 235.798 226.135 230.967 214.281 224.124C200.628 216.242 190.302 207.662 183.302 198.384C176.196 189.044 172.47 179.586 172.126 170.009C171.781 160.31 174.924 150.797 181.554 141.471C188.078 132.083 198.197 123.431 211.91 115.514C223.619 108.755 236.125 103.612 249.428 100.087C262.837 96.5011 276.145 94.5009 289.351 94.0865C302.663 93.6112 315.504 94.6909 327.874 97.3256C340.244 99.9603 351.297 104.088 361.034 109.709Z" fill="#2F2F2F"/>
<path d="M333.967 185.917C335.617 181.654 335.544 176.917 333.857 171.736C341.258 173.484 348.536 174.187 355.656 173.772L355.694 173.77L355.733 173.767C364.723 173.11 372.72 170.716 379.683 166.697C386.576 162.718 391.107 158.229 393.142 153.237C395.14 148.335 395.172 143.283 393.274 138.102C391.386 132.947 387.802 127.853 382.568 122.824C377.344 117.683 370.883 112.895 363.199 108.459C353.164 102.666 341.737 98.3943 328.934 95.6672C316.164 92.9473 302.901 91.8325 289.174 92.3218C275.541 92.7505 261.86 94.8146 248.145 98.4823C234.474 102.106 221.676 107.377 209.745 114.265C195.774 122.33 185.411 131.177 178.717 140.806C171.937 150.346 168.711 160.096 169.065 170.045L169.065 170.046C169.418 179.869 173.24 189.555 180.496 199.092C187.664 208.592 198.221 217.352 212.116 225.374C224.251 232.38 237.539 237.368 251.983 240.286L252.003 240.29L252.022 240.294C266.341 243.061 280.697 244.146 295.068 243.531C309.609 242.919 323.549 240.77 336.873 237.091C350.377 233.42 362.277 228.619 372.553 222.686C375.558 220.951 378.456 219.154 381.245 217.295C384.085 215.403 386.421 213.545 388.224 211.721C390.121 209.848 391.368 208.046 391.759 206.339C392.294 204.418 391.521 202.637 389.14 201.262C387.214 200.15 384.805 199.549 382.076 199.462C379.097 199.36 376.499 200.195 374.35 201.435C373.186 202.107 371.243 203.578 368.645 205.679C366.162 207.689 361.827 210.498 355.526 214.136C346.298 219.463 336.076 223.465 324.858 226.166C313.679 228.821 302.377 230.255 290.937 230.482C279.508 230.587 268.384 229.457 257.546 227.088C246.65 224.668 236.911 220.986 228.313 216.023C216.803 209.378 207.967 202.13 201.769 194.28C195.566 186.425 192.263 178.417 191.829 170.245C191.396 162.077 193.881 153.99 199.315 145.972C204.717 137.999 213.421 130.523 225.506 123.546C235.939 117.523 246.763 113.129 257.965 110.316L257.977 110.313C269.389 107.413 280.406 105.902 291.047 105.737L291.061 105.736L291.075 105.736C301.873 105.511 312.076 106.491 321.715 108.666L321.731 108.669C331.282 110.789 339.536 113.866 346.526 117.901C354.746 122.646 360.725 127.118 364.568 131.312L364.58 131.325L364.592 131.338C368.61 135.552 370.999 139.32 371.89 142.656C372.793 146.038 372.482 148.985 371.081 151.539C369.625 154.067 367.584 156.034 365.032 157.508C361.208 159.715 357.203 160.649 352.912 160.546C348.061 160.43 343.283 159.755 338.56 158.505C333.813 157.158 329.424 155.554 325.389 153.691C321.287 151.686 318.154 150.117 315.974 148.979L315.881 148.93L315.781 148.886C313.509 147.882 310.935 147.338 308.129 147.327C304.951 147.249 302.16 147.98 299.868 149.302C297.886 150.447 296.933 151.902 296.92 153.527C296.797 155.158 297.798 156.629 299.664 157.883C308.759 164.929 313.536 171.164 314.432 176.619C315.23 182.065 312.835 186.175 307.59 189.203C306.152 190.033 304.406 190.652 302.299 191.056C300.165 191.465 297.934 191.62 295.58 191.513C293.242 191.407 290.743 191.041 288.071 190.383C285.476 189.625 282.908 188.531 280.374 187.068C273.619 183.168 269.031 179.283 266.461 175.424C263.919 171.386 262.731 167.644 262.816 164.185C263.009 160.594 264.152 157.437 266.187 154.687L266.196 154.675L266.204 154.664C268.317 151.692 270.704 149.51 273.282 148.021C276.743 146.023 279.621 144.841 281.925 144.301L281.99 144.286L282.053 144.269C284.569 143.601 286.76 143.248 288.649 143.15L288.727 143.146L288.805 143.14C290.923 142.967 292.728 142.887 294.235 142.888L294.426 142.889L294.615 142.875C297.019 142.704 299.118 142.088 300.84 141.094C303.149 139.761 304.248 138.086 304.101 136.198C303.96 134.394 302.836 132.804 300.661 131.549C299.253 130.736 297.566 130.167 295.614 129.964C294.116 129.766 292.69 129.653 291.365 129.652L291.226 129.651L291.088 129.659C289.794 129.725 287.96 129.886 285.644 130.126C283.209 130.328 280.509 130.72 277.562 131.285C274.493 131.873 271.359 132.713 268.164 133.789C264.72 134.852 261.49 136.265 258.47 138.009C253.089 141.115 248.773 144.97 245.486 149.535C242.058 154.087 240.258 159.037 240.053 164.365L240.053 164.375L240.052 164.385C239.957 169.7 241.804 175.139 245.531 180.689C249.217 186.275 255.473 191.577 264.177 196.602C268.509 199.103 273.162 201.085 278.141 202.526C283.124 203.968 288.221 204.805 293.417 205.01L293.452 205.012L293.488 205.013C298.756 205.15 303.911 204.691 308.929 203.641L308.947 203.638L308.965 203.634C314.18 202.501 318.973 200.645 323.35 198.118C328.514 195.137 331.992 191.021 333.967 185.917Z" stroke="#333333" stroke-width="5"/>
</g>
</g>
<defs>
<filter id="filter0_d_116_143" x="150.977" y="90.4422" width="261.755" height="195.023" filterUnits="userSpaceOnUse" color-interpolation-filters="sRGB">
<feFlood flood-opacity="0" result="BackgroundImageFix"/>
<feColorMatrix in="SourceAlpha" type="matrix" values="0 0 0 0 0 0 0 0 0 0 0 0 0 0 0 0 0 0 127 0" result="hardAlpha"/>
<feOffset dy="25"/>
<feGaussianBlur stdDeviation="7.5"/>
<feComposite in2="hardAlpha" operator="out"/>
<feColorMatrix type="matrix" values="0 0 0 0 0 0 0 0 0 0 0 0 0 0 0 0 0 0 0.3 0"/>
<feBlend mode="normal" in2="BackgroundImageFix" result="effect1_dropShadow_116_143"/>
<feBlend mode="normal" in="SourceGraphic" in2="effect1_dropShadow_116_143" result="shape"/>
</filter>
<clipPath id="clip0_116_143">
<rect width="583" height="337" fill="white"/>
</clipPath>
</defs>
</svg>
