<svg width="88" height="46" viewBox="0 0 88 46" fill="none" xmlns="http://www.w3.org/2000/svg">
<path d="M42.7572 45.9358C40.7017 45.9358 36.7794 46 36.7794 46H29.8262V38.8669L37.4086 38.9358C37.4086 38.9358 40.8066 38.8716 42.3168 38.8716C43.7431 38.8716 44.9386 38.6147 45.9035 38.1009C46.8683 37.5443 47.3507 36.7523 47.3507 35.7248C47.3507 34.9113 47.0151 34.2905 46.3439 33.8624C45.6727 33.3914 44.3933 32.8135 42.5055 32.1285L40.8066 31.4862C39.0027 30.8012 37.5345 30.159 36.4019 29.5596C35.2692 28.9174 34.2414 27.9541 33.3186 26.6697C32.3957 25.3853 31.9342 23.6942 31.9342 21.5964C31.9342 18.2569 33.1508 15.6667 35.5838 13.8257C38.0589 11.9419 41.268 11 45.2113 11C48.3156 11 58.1738 11 58.1738 11L53.0769 18.0643H49.7733C49.7733 18.0643 46.7425 18.0643 45.4001 18.0643C44.0157 18.0643 42.9041 18.2997 42.0651 18.7707C41.268 19.2416 40.8695 19.9266 40.8695 20.8257C40.8695 21.682 41.2051 22.3242 41.8763 22.7523C42.5475 23.1805 43.6801 23.6728 45.2742 24.2294C46.5327 24.7003 47.2668 24.9786 47.4766 25.0642C49.2385 25.7921 50.7067 26.4985 51.8813 27.1835C53.0559 27.8685 54.0837 28.896 54.9646 30.2661C55.8455 31.5933 56.286 33.3058 56.286 35.4037C56.286 38.9144 55.0485 41.5474 52.5735 43.3027C50.0984 45.0581 46.8264 45.9358 42.7572 45.9358Z" fill="white"/>
<path d="M69.2485 45.9358C65.8086 45.9358 63.1028 44.8654 61.1312 42.7247C59.1596 40.5841 58.1738 37.6513 58.1738 33.9266V11L67.0461 11V32.4495C67.0461 34.2049 67.4656 35.5749 68.3046 36.5596C69.1436 37.5015 70.2762 37.9725 71.7025 37.9725C73.1288 37.9725 75.887 37.9725 75.887 37.9725C79.1906 37.9725 79.1906 37.9724 79.1276 32.7706V11H88V45.9358H79.1276H74.9432C74.9432 45.9358 71.4718 45.9358 69.2485 45.9358Z" fill="white"/>
<path d="M18.7515 11.0642C22.1914 11.0642 24.8972 12.1346 26.8688 14.2752C28.8404 16.4159 29.8262 19.3486 29.8262 23.0734V46H20.9539V24.5504C20.9539 22.7951 20.5344 21.4251 19.6954 20.4404C18.8564 19.4985 17.7238 19.0275 16.2975 19.0275C14.8712 19.0275 12.113 19.0275 12.113 19.0275C8.80944 19.0275 8.80944 19.0275 8.87237 24.2293V46H0V11.0642H8.87237H13.0568C13.0568 11.0642 16.5282 11.0642 18.7515 11.0642Z" fill="white"/>
<path d="M8 4.5C8 6.98528 6.20914 9 4 9C1.79086 9 0 6.98528 0 4.5C0 2.01472 1.79086 0 4 0C6.20914 0 8 2.01472 8 4.5Z" fill="white"/>
</svg>
