<svg width="68" height="68" viewBox="0 0 68 68" fill="none" xmlns="http://www.w3.org/2000/svg">
<circle cx="34" cy="34" r="31.5" stroke="white" stroke-width="5"/>
<path d="M33.4063 42.3154C32.4244 42.3154 30.5508 42.3455 30.5508 42.3455H27.2294V39.0068L30.8514 39.039C30.8514 39.039 32.4745 39.009 33.1959 39.009C33.8773 39.009 34.4484 38.8888 34.9093 38.6483C35.3701 38.3878 35.6006 38.0171 35.6006 37.5361C35.6006 37.1554 35.4403 36.8648 35.1197 36.6644C34.799 36.444 34.1879 36.1735 33.2861 35.8529L32.4745 35.5523C31.6129 35.2317 30.9115 34.9311 30.3705 34.6505C29.8294 34.3499 29.3385 33.8991 28.8976 33.2979C28.4568 32.6967 28.2363 31.9052 28.2363 30.9233C28.2363 29.3603 28.8175 28.1479 29.9797 27.2862C31.162 26.4045 32.695 25.9637 34.5786 25.9637C36.0615 25.9637 40.7706 25.9637 40.7706 25.9637L38.3359 29.2701H36.7578C36.7578 29.2701 35.31 29.2701 34.6688 29.2701C34.0075 29.2701 33.4765 29.3803 33.0757 29.6007C32.695 29.8212 32.5046 30.1418 32.5046 30.5626C32.5046 30.9634 32.6649 31.264 32.9855 31.4644C33.3061 31.6647 33.8472 31.8952 34.6087 32.1557C35.2098 32.3761 35.5605 32.5064 35.6607 32.5464C36.5023 32.8871 37.2037 33.2178 37.7648 33.5384C38.3259 33.859 38.8168 34.3399 39.2376 34.9812C39.6584 35.6024 39.8689 36.4039 39.8689 37.3858C39.8689 39.029 39.2777 40.2614 38.0954 41.083C36.9131 41.9046 35.3501 42.3154 33.4063 42.3154Z" fill="white"/>
<path d="M46.0608 42.3154C44.4177 42.3154 43.1252 41.8144 42.1833 40.8125C41.2415 39.8105 40.7706 38.4379 40.7706 36.6945V25.9637L45.0088 25.9637V36.0031C45.0088 36.8247 45.2092 37.466 45.61 37.9269C46.0107 38.3677 46.5518 38.5882 47.2331 38.5882C47.9144 38.5882 49.232 38.5882 49.232 38.5882C50.81 38.5882 50.81 38.5882 50.78 36.1534V25.9637H55.0182V42.3154H50.78H48.7811C48.7811 42.3154 47.1229 42.3154 46.0608 42.3154Z" fill="white"/>
<path d="M21.9391 25.9937C23.5823 25.9937 24.8748 26.4947 25.8167 27.4966C26.7585 28.4986 27.2294 29.8712 27.2294 31.6146V42.3455H22.9912V32.306C22.9912 31.4844 22.7908 30.8431 22.39 30.3822C21.9892 29.9414 21.4482 29.721 20.7669 29.721C20.0856 29.721 18.768 29.721 18.768 29.721C17.19 29.721 17.19 29.721 17.22 32.1557V42.3455H12.9818V25.9937H17.22H19.2189C19.2189 25.9937 20.8771 25.9937 21.9391 25.9937Z" fill="white"/>
<path d="M17 22.8727C17 24.0677 16.1005 25.0363 14.9909 25.0363C13.8813 25.0363 12.9818 24.0677 12.9818 22.8727C12.9818 21.6778 13.8813 20.7091 14.9909 20.7091C16.1005 20.7091 17 21.6778 17 22.8727Z" fill="white"/>
</svg>
