<svg width="586" height="339" viewBox="0 0 586 339" fill="none" xmlns="http://www.w3.org/2000/svg">
<g clip-path="url(#clip0_116_135)">
<rect y="9.99935" width="286.638" height="407.725" rx="40" transform="matrix(0.866044 0.499967 -0.866044 0.499967 353.801 -9)" fill="#EEEEEE" stroke="white" stroke-width="20"/>
<g filter="url(#filter0_d_116_135)">
<path d="M168.21 153.473C203.843 132.902 261.617 132.902 297.251 153.473L319.852 166.521C355.485 187.092 355.485 220.444 319.852 241.016L271.961 268.663L120.319 181.12L168.21 153.473Z" fill="#EEEEEE"/>
<path d="M174.705 157.223C206.752 138.722 258.709 138.722 290.755 157.223L313.356 170.27C345.403 188.771 345.403 218.766 313.356 237.266L271.961 261.164L133.31 181.12L174.705 157.223Z" stroke="#2F2F2F" stroke-width="15"/>
</g>
<g filter="url(#filter1_d_116_135)">
<path d="M309.306 105.119C335.347 90.0852 377.569 90.0852 403.61 105.119C429.652 120.153 429.652 144.527 403.61 159.561L386.258 169.578C360.217 184.612 317.995 184.612 291.954 169.578C265.912 154.545 265.912 130.17 291.954 115.136L309.306 105.119Z" fill="#EEEEEE"/>
<path d="M315.801 108.869C338.255 95.9059 374.661 95.9059 397.115 108.869C419.569 121.832 419.569 142.848 397.115 155.811L379.763 165.829C357.309 178.791 320.903 178.791 298.449 165.829C275.995 152.866 275.995 131.849 298.449 118.886L315.801 108.869Z" stroke="#2F2F2F" stroke-width="15"/>
</g>
<g filter="url(#filter2_d_116_135)">
<rect width="141.994" height="16.5515" rx="8.27573" transform="matrix(0.866044 0.499967 -0.866044 0.499967 117.302 199.413)" fill="#2F2F2F"/>
</g>
</g>
<defs>
<filter id="filter0_d_116_135" x="110.319" y="138.044" width="246.258" height="155.619" filterUnits="userSpaceOnUse" color-interpolation-filters="sRGB">
<feFlood flood-opacity="0" result="BackgroundImageFix"/>
<feColorMatrix in="SourceAlpha" type="matrix" values="0 0 0 0 0 0 0 0 0 0 0 0 0 0 0 0 0 0 127 0" result="hardAlpha"/>
<feOffset dy="15"/>
<feGaussianBlur stdDeviation="5"/>
<feComposite in2="hardAlpha" operator="out"/>
<feColorMatrix type="matrix" values="0 0 0 0 0 0 0 0 0 0 0 0 0 0 0 0 0 0 0.4 0"/>
<feBlend mode="normal" in2="BackgroundImageFix" result="effect1_dropShadow_116_135"/>
<feBlend mode="normal" in="SourceGraphic" in2="effect1_dropShadow_116_135" result="shape"/>
</filter>
<filter id="filter1_d_116_135" x="262.423" y="93.8438" width="170.719" height="112.01" filterUnits="userSpaceOnUse" color-interpolation-filters="sRGB">
<feFlood flood-opacity="0" result="BackgroundImageFix"/>
<feColorMatrix in="SourceAlpha" type="matrix" values="0 0 0 0 0 0 0 0 0 0 0 0 0 0 0 0 0 0 127 0" result="hardAlpha"/>
<feOffset dy="15"/>
<feGaussianBlur stdDeviation="5"/>
<feComposite in2="hardAlpha" operator="out"/>
<feColorMatrix type="matrix" values="0 0 0 0 0 0 0 0 0 0 0 0 0 0 0 0 0 0 0.4 0"/>
<feBlend mode="normal" in2="BackgroundImageFix" result="effect1_dropShadow_116_135"/>
<feBlend mode="normal" in="SourceGraphic" in2="effect1_dropShadow_116_135" result="shape"/>
</filter>
<filter id="filter2_d_116_135" x="97.1655" y="201.837" width="148.911" height="99.4202" filterUnits="userSpaceOnUse" color-interpolation-filters="sRGB">
<feFlood flood-opacity="0" result="BackgroundImageFix"/>
<feColorMatrix in="SourceAlpha" type="matrix" values="0 0 0 0 0 0 0 0 0 0 0 0 0 0 0 0 0 0 127 0" result="hardAlpha"/>
<feOffset dy="15"/>
<feGaussianBlur stdDeviation="5"/>
<feComposite in2="hardAlpha" operator="out"/>
<feColorMatrix type="matrix" values="0 0 0 0 0 0 0 0 0 0 0 0 0 0 0 0 0 0 0.4 0"/>
<feBlend mode="normal" in2="BackgroundImageFix" result="effect1_dropShadow_116_135"/>
<feBlend mode="normal" in="SourceGraphic" in2="effect1_dropShadow_116_135" result="shape"/>
</filter>
<clipPath id="clip0_116_135">
<rect width="586" height="339" fill="white"/>
</clipPath>
</defs>
</svg>
