<svg width="586" height="339" viewBox="0 0 586 339" fill="none" xmlns="http://www.w3.org/2000/svg">
<g clip-path="url(#clip0_116_135)">
<rect y="9.99935" width="286.638" height="407.725" rx="40" transform="matrix(0.866044 0.499967 -0.866044 0.499967 353.801 -9)" fill="#97A0F6" stroke="#2F2F2F" stroke-width="20"/>
<path d="M174.705 157.223C206.752 138.722 258.709 138.722 290.755 157.223L313.356 170.27C345.403 188.771 345.403 218.766 313.356 237.266L271.961 261.164L133.31 181.12L174.705 157.223Z" fill="#E1E3F5" stroke="#2F2F2F" stroke-width="15"/>
<path d="M315.801 108.869C338.255 95.906 374.661 95.906 397.115 108.869C419.569 121.832 419.569 142.849 397.115 155.811L379.763 165.829C357.309 178.792 320.903 178.791 298.449 165.829C275.995 152.866 275.995 131.849 298.449 118.886L315.801 108.869Z" fill="#E1E3F5" stroke="#2F2F2F" stroke-width="15"/>
<rect width="141.994" height="16.5515" rx="8.27573" transform="matrix(0.866044 0.499967 -0.866044 0.499967 117.302 199.413)" fill="#2F2F2F"/>
</g>
<defs>
<clipPath id="clip0_116_135">
<rect width="586" height="339" fill="white"/>
</clipPath>
</defs>
</svg>
