<svg width="611" height="369" viewBox="0 0 611 369" fill="none" xmlns="http://www.w3.org/2000/svg">
<g clip-path="url(#clip0_116_148)">
<rect y="15.7001" width="305.054" height="427.123" rx="152.527" transform="matrix(0.919751 0.392503 -0.919751 0.392503 354.077 97.2272)" fill="#EEEEEE" stroke="white" stroke-width="40"/>
<g filter="url(#filter0_d_116_148)">
<path d="M91.7018 296.79C94.447 294.763 93.3601 291.138 89.2741 288.694C85.1881 286.25 79.6502 285.911 76.905 287.938L91.7018 296.79ZM114.183 261.089C111.358 263.067 112.335 266.684 116.366 269.168C120.397 271.652 125.955 272.062 128.781 270.084L114.183 261.089ZM166.963 244.369C169.916 242.471 169.116 238.869 165.177 236.323C161.238 233.777 155.652 233.252 152.699 235.15L166.963 244.369ZM194.045 210.473C190.846 212.203 191.284 215.764 195.025 218.427C198.765 221.089 204.392 221.845 207.592 220.115L194.045 210.473ZM252.228 200.844C256.201 199.771 257.064 196.478 254.157 193.49C251.251 190.501 245.674 188.949 241.701 190.022L252.228 200.844ZM302.242 214.918C301.159 211.749 296.388 209.013 291.586 208.807C286.784 208.601 283.77 211.002 284.853 214.171L302.242 214.918ZM294.005 256.162C294.923 259.321 299.588 262.138 304.424 262.453C309.26 262.768 312.437 260.462 311.519 257.302L294.005 256.162ZM341.158 274.414C337.051 275.343 335.922 278.558 338.636 281.594C341.349 284.631 346.879 286.339 350.986 285.41L341.158 274.414ZM399.894 265.46C403.116 263.746 402.71 260.189 398.988 257.516C395.266 254.844 389.637 254.067 386.416 255.782L399.894 265.46ZM427.266 231.611C424.307 233.505 425.097 237.106 429.03 239.655C432.964 242.204 438.552 242.736 441.511 240.842L427.266 231.611ZM480.047 214.968C482.875 212.992 481.902 209.375 477.873 206.89C473.844 204.404 468.285 203.992 465.457 205.968L480.047 214.968ZM502.55 179.279C499.804 181.305 500.89 184.93 504.976 187.374C509.062 189.819 514.6 190.158 517.345 188.132L502.55 179.279ZM72.7806 310.909C79.2743 306.014 85.5795 301.31 91.7018 296.79L76.905 287.938C70.7559 292.478 64.4255 297.201 57.9082 302.114L72.7806 310.909ZM128.781 270.084C142.62 260.395 155.314 251.857 166.963 244.369L152.699 235.15C140.919 242.723 128.112 251.337 114.183 261.089L128.781 270.084ZM207.592 220.115C226.423 209.932 240.996 203.879 252.228 200.844L241.701 190.022C228.839 193.497 213.225 200.102 194.045 210.473L207.592 220.115ZM284.853 214.171C286.911 220.187 288.205 227.111 289.489 234.449C290.749 241.647 292 249.26 294.005 256.162L311.519 257.302C309.671 250.942 308.498 243.845 307.205 236.457C305.937 229.209 304.551 221.669 302.242 214.918L284.853 214.171ZM350.986 285.41C364.033 282.457 380.013 276.041 399.894 265.46L386.416 255.782C366.878 266.18 352.162 271.924 341.158 274.414L350.986 285.41ZM441.511 240.842C453.277 233.315 466.089 224.723 480.047 214.968L465.457 205.968C451.59 215.659 438.894 224.172 427.266 231.611L441.511 240.842ZM517.345 188.132C523.492 183.595 529.822 178.873 536.342 173.959L521.47 165.163C514.974 170.059 508.669 174.763 502.55 179.279L517.345 188.132ZM99.1001 301.215C104.591 297.162 102.417 289.913 94.2447 285.024C86.0727 280.135 74.9971 279.458 69.5066 283.512L99.1001 301.215ZM106.885 256.591C101.234 260.547 103.188 267.782 111.25 272.75C119.312 277.717 130.428 278.538 136.079 274.581L106.885 256.591ZM174.095 248.978C180 245.183 178.401 237.978 170.523 232.887C162.646 227.795 151.472 226.745 145.567 230.541L174.095 248.978ZM187.272 205.652C180.873 209.112 181.75 216.234 189.231 221.559C196.712 226.884 207.965 228.396 214.365 224.936L187.272 205.652ZM257.491 206.255C265.437 204.108 267.164 197.523 261.35 191.546C255.537 185.569 244.383 182.464 236.437 184.611L257.491 206.255ZM310.937 215.291C308.77 208.954 299.228 203.482 289.624 203.07C280.02 202.657 273.992 207.461 276.159 213.798L310.937 215.291ZM285.249 255.592C287.084 261.911 296.414 267.544 306.086 268.174C315.759 268.804 322.112 264.191 320.276 257.872L285.249 255.592ZM336.244 268.916C328.031 270.775 325.772 277.204 331.199 283.277C336.627 289.35 347.686 292.766 355.899 290.907L336.244 268.916ZM406.633 270.299C413.076 266.87 412.265 259.757 404.822 254.412C397.378 249.067 386.12 247.513 379.677 250.942L406.633 270.299ZM420.144 226.996C414.225 230.783 415.804 237.985 423.672 243.083C431.539 248.182 442.715 249.245 448.634 245.458L420.144 226.996ZM487.343 219.468C492.999 215.515 491.052 208.281 482.994 203.311C474.936 198.34 463.818 197.516 458.161 201.469L487.343 219.468ZM495.153 174.852C489.661 178.905 491.833 186.154 500.004 191.044C508.175 195.933 519.251 196.611 524.743 192.558L495.153 174.852ZM80.2169 315.306C86.6987 310.421 92.9912 305.726 99.1001 301.215L69.5066 283.512C63.3442 288.062 57.0012 292.795 50.472 297.716L80.2169 315.306ZM136.079 274.581C149.873 264.924 162.512 256.424 174.095 248.978L145.567 230.541C133.721 238.156 120.858 246.808 106.885 256.591L136.079 274.581ZM214.365 224.936C233.023 214.847 247.075 209.07 257.491 206.255L236.437 184.611C222.76 188.306 206.626 195.187 187.272 205.652L214.365 224.936ZM276.159 213.798C278.09 219.446 279.34 226.062 280.632 233.445C281.875 240.548 283.165 248.419 285.249 255.592L320.276 257.872C318.507 251.783 317.373 244.944 316.063 237.461C314.803 230.258 313.371 222.41 310.937 215.291L276.159 213.798ZM355.899 290.907C369.969 287.724 386.581 280.971 406.633 270.299L379.677 250.942C360.31 261.249 346.226 266.658 336.244 268.916L355.899 290.907ZM448.634 245.458C460.468 237.886 473.338 229.256 487.343 219.468L458.161 201.469C444.341 211.127 431.703 219.6 420.144 226.996L448.634 245.458ZM524.743 192.558C530.903 188.012 537.247 183.28 543.779 178.356L514.034 160.766C507.55 165.653 501.258 170.346 495.153 174.852L524.743 192.558Z" fill="#2F2F2F"/>
</g>
<g filter="url(#filter1_d_116_148)">
<rect width="66.3697" height="66.3697" rx="33.1848" transform="matrix(0.8659 0.500218 -0.8659 0.500218 45.3127 282.179)" fill="#2F2F2F"/>
<rect y="7.50327" width="51.3697" height="51.3697" rx="25.6848" transform="matrix(0.8659 0.500218 -0.8659 0.500218 51.8098 285.929)" stroke="white" stroke-width="15"/>
</g>
<g filter="url(#filter2_d_116_148)">
<rect width="66.3697" height="66.3697" rx="33.1848" transform="matrix(0.8659 0.500218 -0.8659 0.500218 520.433 144.736)" fill="#2F2F2F"/>
<rect y="7.50327" width="51.3697" height="51.3697" rx="25.6848" transform="matrix(0.8659 0.500218 -0.8659 0.500218 526.93 148.486)" stroke="white" stroke-width="15"/>
</g>
<g filter="url(#filter3_d_116_148)">
<rect width="66.3697" height="66.3697" rx="33.1848" transform="matrix(0.8659 0.500218 -0.8659 0.500218 298.171 203.183)" fill="#2F2F2F"/>
<rect y="7.50327" width="51.3697" height="51.3697" rx="25.6848" transform="matrix(0.8659 0.500218 -0.8659 0.500218 304.668 206.933)" stroke="white" stroke-width="15"/>
</g>
<path d="M511 30H532V163.5H511V30Z" fill="white"/>
<path d="M531.3 80.0894L531.038 80.2198L530.788 80.3701L529.861 80.9269C524.862 83.9284 518.5 80.3278 518.5 74.4969V44V14.4158C518.5 9.21105 523.672 5.58865 528.563 7.36741L531.683 8.50195L545.525 15.4106L559.75 22.5106L589.761 37.4894C595.295 40.2516 595.295 48.1484 589.761 50.9106L559.75 65.8894L545.525 72.9894L531.3 80.0894Z" fill="#2F2F2F" stroke="white" stroke-width="15"/>
</g>
<defs>
<filter id="filter0_d_116_148" x="40.4719" y="160.766" width="513.307" height="189.541" filterUnits="userSpaceOnUse" color-interpolation-filters="sRGB">
<feFlood flood-opacity="0" result="BackgroundImageFix"/>
<feColorMatrix in="SourceAlpha" type="matrix" values="0 0 0 0 0 0 0 0 0 0 0 0 0 0 0 0 0 0 127 0" result="hardAlpha"/>
<feOffset dy="25"/>
<feGaussianBlur stdDeviation="5"/>
<feComposite in2="hardAlpha" operator="out"/>
<feColorMatrix type="matrix" values="0 0 0 0 0 0 0 0 0 0 0 0 0 0 0 0 0 0 0.25 0"/>
<feBlend mode="normal" in2="BackgroundImageFix" result="effect1_dropShadow_116_148"/>
<feBlend mode="normal" in="SourceGraphic" in2="effect1_dropShadow_116_148" result="shape"/>
</filter>
<filter id="filter1_d_116_148" x="-5.32422" y="291.903" width="101.274" height="71.9509" filterUnits="userSpaceOnUse" color-interpolation-filters="sRGB">
<feFlood flood-opacity="0" result="BackgroundImageFix"/>
<feColorMatrix in="SourceAlpha" type="matrix" values="0 0 0 0 0 0 0 0 0 0 0 0 0 0 0 0 0 0 127 0" result="hardAlpha"/>
<feOffset dy="15"/>
<feGaussianBlur stdDeviation="5"/>
<feComposite in2="hardAlpha" operator="out"/>
<feColorMatrix type="matrix" values="0 0 0 0 0 0 0 0 0 0 0 0 0 0 0 0 0 0 0.25 0"/>
<feBlend mode="normal" in2="BackgroundImageFix" result="effect1_dropShadow_116_148"/>
<feBlend mode="normal" in="SourceGraphic" in2="effect1_dropShadow_116_148" result="shape"/>
</filter>
<filter id="filter2_d_116_148" x="469.796" y="154.46" width="101.274" height="71.9509" filterUnits="userSpaceOnUse" color-interpolation-filters="sRGB">
<feFlood flood-opacity="0" result="BackgroundImageFix"/>
<feColorMatrix in="SourceAlpha" type="matrix" values="0 0 0 0 0 0 0 0 0 0 0 0 0 0 0 0 0 0 127 0" result="hardAlpha"/>
<feOffset dy="15"/>
<feGaussianBlur stdDeviation="5"/>
<feComposite in2="hardAlpha" operator="out"/>
<feColorMatrix type="matrix" values="0 0 0 0 0 0 0 0 0 0 0 0 0 0 0 0 0 0 0.25 0"/>
<feBlend mode="normal" in2="BackgroundImageFix" result="effect1_dropShadow_116_148"/>
<feBlend mode="normal" in="SourceGraphic" in2="effect1_dropShadow_116_148" result="shape"/>
</filter>
<filter id="filter3_d_116_148" x="247.534" y="212.906" width="101.274" height="71.9509" filterUnits="userSpaceOnUse" color-interpolation-filters="sRGB">
<feFlood flood-opacity="0" result="BackgroundImageFix"/>
<feColorMatrix in="SourceAlpha" type="matrix" values="0 0 0 0 0 0 0 0 0 0 0 0 0 0 0 0 0 0 127 0" result="hardAlpha"/>
<feOffset dy="15"/>
<feGaussianBlur stdDeviation="5"/>
<feComposite in2="hardAlpha" operator="out"/>
<feColorMatrix type="matrix" values="0 0 0 0 0 0 0 0 0 0 0 0 0 0 0 0 0 0 0.25 0"/>
<feBlend mode="normal" in2="BackgroundImageFix" result="effect1_dropShadow_116_148"/>
<feBlend mode="normal" in="SourceGraphic" in2="effect1_dropShadow_116_148" result="shape"/>
</filter>
<clipPath id="clip0_116_148">
<rect width="611" height="369" fill="white"/>
</clipPath>
</defs>
</svg>
